# xmcd
#
# Track frame offsets: 
#        150
#        19095
#        47646
#        62077
#        86073
#
# Disc length: 1301 seconds
#
# Revision: 0
# Processed by: cddbd v1.5.2PL0 Copyright (c) Steve Scherf et al.
# Submitted via: ExactAudioCopy v1.3
#
DISCID=39051305
DTITLE=Tom Euler - Fool Me Once
DYEAR=2016
DGENRE=Rockin' Blues
TTITLE0=Fool Me Once
TTITLE1=Can't Shake It
TTITLE2=Tricky Business
TTITLE3=Is It Better
TTITLE4=Rock N' Roll These Days
EXTD=
EXTT0=
EXTT1=
EXTT2=
EXTT3=
EXTT4=
PLAYORDER=
